<svg xmlns="http://www.w3.org/2000/svg" width="897" height="429" fill="none"><g opacity=".8"><path fill="url(#a)" d="M0 329.992h896.191v2.154H0z" opacity=".5"/><path fill="url(#b)" d="M0 76.481h896.191v2.154H0z" opacity=".5"/><path fill="url(#c)" d="M0 204.659h896.191v2.154H0z" opacity=".5"/><path fill="url(#d)" d="M290.831 0h428.707v2.154H290.831z" opacity=".5" transform="rotate(90 290.831 0)"/><path fill="url(#e)" d="M613.977 0h428.707v2.154H613.977z" opacity=".5" transform="rotate(90 613.977 0)"/><path fill="url(#f)" d="M568.736 0h428.707v2.154H568.736z" opacity=".5" transform="rotate(90 568.736 0)"/><path fill="url(#g)" d="M336.072 0h428.707v2.154H336.072z" opacity=".5" transform="rotate(90 336.072 0)"/></g><path fill="#E9EEF5" stroke="#697584" stroke-linejoin="round" stroke-width="2" d="M567.295 238.414a1.003 1.003 0 0 1 .974 1.229c-.024.101-.051.203-.077.304a37.352 37.352 0 0 1-3.451 18.174l-.269.566-.01.018a47.5 47.5 0 0 1-20.608 20.543v.001a59.618 59.618 0 0 1-10.338 4.325L393.92 328.063h-.002a53.194 53.194 0 0 1-32.043.007v.001a40.973 40.973 0 0 1-23.599-17.942l-.506-.849-.017-.03a31.297 31.297 0 0 1-3.698-15.505l.017-.163a1 1 0 0 1 1.837-.334c7.516 12.332 24.01 22.059 45.782 18.793l.041-.005a34.249 34.249 0 0 0 6.644-1.389l139.599-44.49 1.276-.425.002-.001 2.083-.704c10.267-3.545 18.275-7.419 24.062-11.601 5.937-4.291 9.465-8.855 10.776-13.664l-.019-.269a1.003 1.003 0 0 1 .997-1.079h.143Zm0-30.696a1.002 1.002 0 0 1 .975 1.227c-.024.103-.052.204-.078.306a37.282 37.282 0 0 1-3.451 18.174l-.27.564-.009.019a47.493 47.493 0 0 1-20.602 20.539l.001.001a57.055 57.055 0 0 1-10.346 4.365l-.001-.001-139.594 44.489-.006.002a53.77 53.77 0 0 1-32.06 0v-.001a41.117 41.117 0 0 1-23.576-17.934l-.507-.848-.019-.033a30.362 30.362 0 0 1-1.659-3.679v.001a29.525 29.525 0 0 1-2.037-11.836l.018-.162a1 1 0 0 1 1.834-.325l.359.574c7.673 12.024 23.992 21.4 45.425 18.22l.04-.005.845-.102a34.156 34.156 0 0 0 5.799-1.288l139.599-44.49 1.276-.425h.002l2.083-.705c10.266-3.546 18.274-7.421 24.061-11.609 5.937-4.296 9.466-8.87 10.777-13.691l-.019-.268a1.003 1.003 0 0 1 .997-1.079h.143Zm0-30.697a1 1 0 0 1 .975 1.227c-.024.102-.051.202-.077.304a37.212 37.212 0 0 1-3.452 18.177l-.27.564-.009.018a47.68 47.68 0 0 1-20.608 20.579v.001a59.692 59.692 0 0 1-10.338 4.324L393.92 266.704l-.002.001a53.202 53.202 0 0 1-32.067 0v-.001a41.12 41.12 0 0 1-23.573-17.933l-.507-.848-.018-.031a31.297 31.297 0 0 1-3.698-15.505l.017-.163a1 1 0 0 1 1.837-.334c7.516 12.332 24.01 22.058 45.782 18.793l.041-.005a34.249 34.249 0 0 0 6.644-1.389l139.599-44.49 1.276-.426h.002l2.084-.703c10.266-3.536 18.273-7.406 24.06-11.594 5.937-4.296 9.468-8.874 10.778-13.707l-.02-.268a1 1 0 0 1 .997-1.08h.143Zm-151.41-94.267a81.235 81.235 0 0 1 48.813-.001h.001a62.342 62.342 0 0 1 33.917 24.497 68.075 68.075 0 0 1 34.877 1.589l1.192.356a51.427 51.427 0 0 1 28.792 22.653l.315.534.02.035.419.813a40.297 40.297 0 0 1 2.406 5.924l.265.864a36.677 36.677 0 0 1-2.436 26.91l-.005.01a47.818 47.818 0 0 1-20.62 20.548l-.001-.001a59.645 59.645 0 0 1-10.324 4.319L393.92 236.293a.992.992 0 0 1-.248.043 53.203 53.203 0 0 1-31.903-.034l-.949-.285a40.975 40.975 0 0 1-22.651-17.658l-.507-.848-.016-.03a30.627 30.627 0 0 1-.888-27.189l.007-.014a36.75 36.75 0 0 1 12.807-14.828 28.013 28.013 0 0 1-.579-1.629v-.001a29.935 29.935 0 0 1 1.816-22.769l.001-.002.348-.667a38.455 38.455 0 0 1 16.252-15.986l.937-.483a48.31 48.31 0 0 1 6.129-2.571 45.337 45.337 0 0 1 9.142-26.504l.007-.008.773-.982a63.325 63.325 0 0 1 31.487-21.094Zm42.972 17.208a62.996 62.996 0 0 0-36.652-.352l-1.156.352-.025.008a44.823 44.823 0 0 0-23.001 15.513l.001.001a26.366 26.366 0 0 0-5.073 20.639l1.611 8.184a1 1 0 0 1-.811 1.178l-8.27 1.43a.965.965 0 0 1-.169.015c-.372 0-.725.061-1.087.149-.185.045-.361.094-.553.147-.092.025-.189.051-.288.076l-.301.07c-.619.13-1.504.401-2.202.645a29.064 29.064 0 0 0-4.539 1.833l-.617.32-.024.013a20.46 20.46 0 0 0-8.829 8.566l-.259.538a12.1 12.1 0 0 0-.505 8.627l.214.602c.226.595.49 1.176.79 1.739l.191.34c.131.224.269.445.414.661l.222.319.035.052.217.334c.223.33.461.65.713.959h-.001l7.159 8.719a1 1 0 0 1-.368 1.548l-9.987 4.431-.041.018c-.836.326-1.655.693-2.455 1.098l-.793.419a19.78 19.78 0 0 0-8.897 8.762 11.882 11.882 0 0 0-.319 9.291l.17.412c.172.402.359.797.563 1.185a22.79 22.79 0 0 0 13.285 10.065c.087.025.168.06.243.105a35.25 35.25 0 0 0 20.552-.095l139.602-44.491.006-.002.931-.302a40.202 40.202 0 0 0 6.264-2.731l.027-.014a29.76 29.76 0 0 0 12.846-12.513 18.836 18.836 0 0 0 1.154-14.144l-.163-.464a25.977 25.977 0 0 0-1.377-3.127 33.358 33.358 0 0 0-18.85-14.595l-.766-.222-.033-.009a49.552 49.552 0 0 0-29.754 0 1.02 1.02 0 0 1-.3.046h-.403l-.556.194-.008.003-7.159 2.43a1.002 1.002 0 0 1-1.24-.549l-3.007-6.933a1.324 1.324 0 0 1-.033-.088 6.432 6.432 0 0 0-.308-.772l-.125-.248-.027-.055a9.417 9.417 0 0 0-.262-.519 22.088 22.088 0 0 1-.303-.574 42.806 42.806 0 0 0-25.28-19.227l-.034-.01Z"/><defs><linearGradient id="a" x1="896.191" x2="0" y1="332.148" y2="332.147" gradientUnits="userSpaceOnUse"><stop stop-color="#697584" stop-opacity="0"/><stop offset=".51" stop-color="#697584"/><stop offset="1" stop-color="#697584" stop-opacity="0"/></linearGradient><linearGradient id="b" x1="896.191" x2="0" y1="78.638" y2="78.636" gradientUnits="userSpaceOnUse"><stop stop-color="#697584" stop-opacity="0"/><stop offset=".51" stop-color="#697584"/><stop offset="1" stop-color="#697584" stop-opacity="0"/></linearGradient><linearGradient id="c" x1="896.191" x2="0" y1="206.816" y2="206.815" gradientUnits="userSpaceOnUse"><stop stop-color="#697584" stop-opacity="0"/><stop offset=".51" stop-color="#697584"/><stop offset="1" stop-color="#697584" stop-opacity="0"/></linearGradient><linearGradient id="d" x1="719.538" x2="290.831" y1="2.157" y2="2.156" gradientUnits="userSpaceOnUse"><stop stop-color="#697584" stop-opacity="0"/><stop offset=".51" stop-color="#697584"/><stop offset="1" stop-color="#697584" stop-opacity="0"/></linearGradient><linearGradient id="e" x1="1042.68" x2="613.977" y1="2.157" y2="2.156" gradientUnits="userSpaceOnUse"><stop stop-color="#697584" stop-opacity="0"/><stop offset=".51" stop-color="#697584"/><stop offset="1" stop-color="#697584" stop-opacity="0"/></linearGradient><linearGradient id="f" x1="997.443" x2="568.736" y1="2.157" y2="2.156" gradientUnits="userSpaceOnUse"><stop stop-color="#697584" stop-opacity="0"/><stop offset=".51" stop-color="#697584"/><stop offset="1" stop-color="#697584" stop-opacity="0"/></linearGradient><linearGradient id="g" x1="764.778" x2="336.072" y1="2.157" y2="2.156" gradientUnits="userSpaceOnUse"><stop stop-color="#697584" stop-opacity="0"/><stop offset=".51" stop-color="#697584"/><stop offset="1" stop-color="#697584" stop-opacity="0"/></linearGradient></defs></svg>