
<svg width="1204" height="632" viewBox="0 0 1204 632" fill="none" xmlns="http://www.w3.org/2000/svg">
<path fill-rule="evenodd" clip-rule="evenodd" d="M794.589 350.794C782.938 354.477 770.431 354.477 758.78 350.794C747.495 347.548 737.905 340.072 732.014 329.93C729.555 325.352 728.188 320.269 728.018 315.077C727.848 309.885 728.881 304.724 731.036 299.996C734.322 293.061 739.505 287.196 745.988 283.076C745.621 282.182 745.295 281.327 745.01 280.433C742.337 272.146 743.055 263.14 747.006 255.379C751.061 247.455 757.5 240.997 765.42 236.914C768.187 235.446 771.077 234.222 774.057 233.254C774.077 222.32 777.651 211.687 784.241 202.954C793.371 191.111 806.02 182.455 820.377 178.226C838.247 172.591 857.423 172.591 875.293 178.226C890.996 182.799 904.592 192.731 913.71 206.289C926.913 203.285 940.68 203.846 953.593 207.916C967.839 211.988 979.955 221.403 987.407 234.19C988.677 236.584 989.727 239.089 990.544 241.673C993.817 251.84 992.954 262.884 988.14 272.42C983.051 282.252 975.02 290.255 965.163 295.318C961.467 297.291 957.594 298.912 953.593 300.158L794.711 350.794H794.589ZM992.377 355.431C989.525 367.578 975.212 377.922 949.438 386.463L947.971 386.951L789.089 437.586C786.556 438.385 783.95 438.93 781.308 439.213C756.091 442.996 736.862 431.73 728.062 417.291C727.923 423.241 729.327 429.125 732.136 434.373C738.027 444.516 747.617 451.991 758.902 455.238C770.553 458.921 783.06 458.921 794.711 455.238L953.593 404.602C957.594 403.355 961.467 401.735 965.163 399.762C975.034 394.719 983.071 386.71 988.14 376.864C991.391 370.211 992.798 362.81 992.214 355.431H992.377ZM992.377 320.494C989.525 332.668 975.212 343.026 949.438 351.567L947.971 352.055L789.089 402.69C786.556 403.489 783.95 404.034 781.308 404.317C756.091 408.059 736.862 396.793 728.062 382.396C727.91 386.841 728.673 391.271 730.303 395.41C730.823 396.805 731.435 398.164 732.136 399.477C738.04 409.608 747.625 417.08 758.902 420.342C770.56 423.983 783.053 423.983 794.711 420.342L953.593 369.706C957.602 368.464 961.477 366.829 965.163 364.826C975.034 359.782 983.071 351.773 988.14 341.928C991.395 335.276 992.802 327.874 992.214 320.494H992.377ZM992.377 285.557C989.525 297.759 975.212 308.116 949.438 316.63L947.971 317.118L789.089 367.754C786.556 368.552 783.95 369.097 781.308 369.381C756.091 373.163 736.862 361.897 728.062 347.459C727.923 353.408 729.327 359.292 732.136 364.541C738.04 374.672 747.625 382.144 758.902 385.405C770.553 389.088 783.06 389.088 794.711 385.405L953.593 334.769C957.594 333.523 961.467 331.902 965.163 329.93C975.032 324.865 983.067 316.844 988.14 306.991C991.399 300.34 992.806 292.937 992.214 285.557H992.377ZM764.239 333.143C772.199 335.612 780.722 335.612 788.682 333.143L947.564 282.507C950.47 281.603 953.281 280.418 955.956 278.968C962.391 275.729 967.669 270.588 971.07 264.246C973.737 258.976 974.234 252.875 972.455 247.245C971.954 245.777 971.341 244.35 970.622 242.975C965.455 234.453 957.221 228.226 947.605 225.567C936.362 222.028 924.301 222.028 913.058 225.567H912.406L911.591 225.852L903.444 228.618L900.022 220.727C899.87 220.264 899.68 219.815 899.451 219.385C899.248 218.938 899.003 218.531 898.759 218.043C892.186 207.075 881.64 199.051 869.304 195.633C855.078 191.158 839.818 191.158 825.592 195.633C814.98 198.672 805.608 204.995 798.826 213.691C796.188 217.122 794.293 221.063 793.262 225.264C792.231 229.465 792.086 233.834 792.837 238.094L794.671 247.408L785.26 249.035C784.16 249.035 783.264 249.401 782.49 249.563C781.716 249.726 780.656 250.051 779.842 250.336C777.756 250.983 775.737 251.827 773.812 252.858C769.324 255.11 765.639 258.689 763.261 263.107C761.47 266.606 761.133 270.668 762.324 274.413C762.649 275.395 763.058 276.348 763.546 277.26C763.85 277.824 764.191 278.367 764.564 278.887C764.912 279.439 765.293 279.969 765.705 280.473L773.853 290.397L762.487 295.44C761.173 295.954 759.894 296.551 758.657 297.23C754.092 299.486 750.377 303.151 748.065 307.683C747.224 309.475 746.754 311.418 746.684 313.396C746.614 315.374 746.945 317.346 747.658 319.192C747.921 319.859 748.22 320.51 748.554 321.145C752.112 326.997 757.761 331.285 764.361 333.143H764.239Z" fill="#01A1FF"/>
<path d="M364.108 445.639C357.233 454.296 343.294 449.553 343.128 438.498L340.706 276.812H449.424C469.116 276.812 480.098 299.556 467.853 314.978L364.108 445.639Z" fill="url(#paint0_linear_197_31)"/>
<path d="M364.108 445.639C357.233 454.296 343.294 449.553 343.128 438.498L340.706 276.812H449.424C469.116 276.812 480.098 299.556 467.853 314.978L364.108 445.639Z" fill="url(#paint1_linear_197_31)" fill-opacity="0.2"/>
<path d="M319.893 185.471C326.768 176.813 340.707 181.557 340.873 192.612L341.934 354.298H234.577C214.885 354.298 203.902 331.554 216.147 316.132L319.893 185.471Z" fill="#3ECF8E"/>
<defs>
<linearGradient id="paint0_linear_197_31" x1="340.706" y1="312.662" x2="437.331" y2="353.186" gradientUnits="userSpaceOnUse">
<stop stop-color="#249361"/>
<stop offset="1" stop-color="#3ECF8E"/>
</linearGradient>
<linearGradient id="paint1_linear_197_31" x1="297.867" y1="254.008" x2="341.933" y2="336.96" gradientUnits="userSpaceOnUse">
<stop/>
<stop offset="1" stop-opacity="0"/>
</linearGradient>
</defs>
</svg>

