<svg xmlns="http://www.w3.org/2000/svg" xmlns:xlink="http://www.w3.org/1999/xlink" xmlns:a="http://ns.adobe.com/AdobeSVGViewerExtensions/3.0/" version="1.1" x="0px" y="0px" viewBox="57.134 9.727 100 125" enable-background="new 57.134 9.727 100 100" xml:space="preserve"><path display="none" d="M42.633,72.221c-1.899-1.85-4.148-2.749-6.797-2.749s-4.898,0.899-6.797,2.749  c-1.1,1.05-1.849,2.199-2.299,3.498c-1.649,3.949-3.199,6.598-4.648,7.997c-2.299,2.35-5.098,3.499-8.447,3.499  c-3.298,0-6.098-1.149-8.396-3.499C2.899,81.417,1.75,78.619,1.75,75.32c0-0.25,0-0.5,0.05-0.75C0.6,76.819,0,79.369,0,82.167  c0,1.049,0.1,2.049,0.3,3.049c0.15,0.949,0.45,2.049,0.9,3.198c0.35,1.149,0.899,2.149,1.549,2.999s1.149,1.499,1.599,1.949  c2.949,3.099,6.448,4.648,10.546,4.648c3.699,0,7.247-1.4,10.646-4.148l-2.549,3.198l-1.849,20.192h3.099l4.048-17.693l5.048-3.448  l-3.699-8.797c0.45-0.25,0.85-0.45,1.2-0.649l4.498,10.546c-0.25,0.6-0.6,1.349-0.95,2.249l-1.1,2.549l18.693,15.244h4.248  l-15.294-14.545l6.397-14.144l10.946,5.897l12.745,0.35l3.099,22.441h2.999l-0.2-27.64c0.25-0.499,0.6-1.149,1.049-1.949  c1.15-2.898,1.7-5.697,1.7-8.446c0-3.249-0.6-5.998-1.799-8.297c-0.25-0.449-0.5-0.85-0.75-1.199c0,0,0,0,0-0.05  c0.55-2.549,0.8-5.248,0.75-8.098c0-0.6,0-1.199-0.05-1.799h-5.548v-1.999h5.398c-0.15-1.149-0.3-2.299-0.55-3.349h-4.848v-1.999  h4.398c-0.35-1.1-0.7-2.149-1.1-3.199h-3.299v-2h2.399c-0.2-0.35-0.4-0.7-0.6-1.049c-1.699-2.949-3.598-4.848-5.748-5.748h-0.3  v2.599h-1.999v-2.599h-1.6v2.599h-1.999v-2.599h-1.549v3.999L50.38,53.729l2.649,5.448l12.645-3.449l-0.35,3.799l-4.098,9.596  l3.898-1.2l0.3,1.399L49.13,74.92h-0.05c-1.2,0.399-2.499,0.799-3.849,1.249c-0.25-0.649-0.55-1.249-0.899-1.799  C43.882,73.621,43.283,72.871,42.633,72.221L42.633,72.221z"/><polygon display="none" points="77.969,87.665 78.469,98.76 81.817,103.109 79.668,117.203 82.767,117.203 86.366,101.609   77.969,87.665 "/><path display="none" d="M141.993,0c-4.947,0-9.195,1.75-12.695,5.198c-3.447,3.499-5.197,7.747-5.197,12.695  c0,4.948,1.75,9.146,5.197,12.595c3.049,3.049,6.598,4.748,10.746,5.148l-2,2.099c-0.1-0.05-0.199-0.05-0.299-0.05  c-3.35-0.45-6.447,0.45-9.346,2.749c-5.549-0.25-9.547-3.048-11.945-8.296c2.049-10.046-0.6-17.243-7.897-21.642  c-6.348-3.848-13.095-4.498-20.242-1.949c-1.1,0.4-2.199,0.85-3.349,1.399l3.049,2.449h-3.898v3.849h2.749l-2.749,2.099v1.1h3.048  l1.15-2l0.05-0.1l0.1,5.998h1.399v12.445l8.047-3.749v-3.648c4.198,5.748,4.898,13.645,2.099,23.74l3.548,5.748v27.389h3.549v-26.49  h1.249v17.643l9.097,9.097h3.749l-9.347-10.446l0.499-9.597l2.649-6.697h9.396c-0.049-4.998,2.5-7.897,7.748-8.696  c-0.9,6.947,1.35,10.446,6.797,10.446l-9.896,23.891h3.648l10.797-25.09l4.848-0.55v26.29h3.848V53.279h-5.098  c1.699-4.548,1.1-8.397-1.85-11.596l0,0l0.75-0.85l-4.547-6.747c-2.25-3.049-3.449-6.697-3.6-10.946  c-0.15-4.448,0.9-8.247,3.1-11.396c2.299-3.148,5.146-4.698,8.496-4.698c3.348,0,6.248,1.549,8.697,4.698  c0.449,0.55,0.898,1.15,1.248,1.75c-0.75-3.099-2.299-5.848-4.748-8.297C151.19,1.75,146.94,0,141.993,0L141.993,0z M91.713,21.191  c0.25-0.2,0.5-0.3,0.85-0.3c0.35,0,0.6,0.1,0.8,0.3c0.25,0.25,0.35,0.5,0.35,0.85c0,0.35-0.1,0.6-0.35,0.8  c-0.2,0.25-0.45,0.35-0.8,0.35c-0.35,0-0.6-0.1-0.85-0.35c-0.2-0.2-0.3-0.45-0.3-0.8C91.414,21.691,91.514,21.441,91.713,21.191  L91.713,21.191z"/><polygon display="none" points="86.933,110.78 73.139,100.884 67.991,100.734 66.791,105.532 86.933,110.78 "/><path display="none" d="M68.24,93.387l-0.2-0.051C68.09,93.336,68.141,93.336,68.24,93.387L68.24,93.387z"/><path display="none" d="M66.591,76.994c-2.499,2.299-3.749,5.048-3.749,8.297c0,2.948,1.049,5.497,3.148,7.646L39.652,87.54  c0.2-1.649,0.35-3.249,0.5-4.799h-4.798v-1.998h4.948c0.05-1.051,0.1-2.1,0.15-3.149h-5.098v-1.999h5.098  c-0.05-1.1-0.05-2.149-0.1-3.148h-4.998v-2h4.798c-0.15-1.148-0.3-2.299-0.5-3.348h-4.298v-2h3.849  c-0.3-1.149-0.65-2.199-1.05-3.199h-2.799V59.9h1.899c-1.5-2.899-3.499-5.148-5.998-6.797h-0.15v2.599h-2v-2.599h-1.599v2.599h-2  v-2.599h-1.549v3.999l-10.496,9.296l2.649,5.448l12.645-3.449l-0.55,5.498L22.858,87.19v12.545l-12.745,9.896l6.047,10.946v-11.695  l12.845-3.499l-5.698,7.397l6.647,12.045l-1.25-11.296l10.096-6.697h5.848l11.545-7.197v7.447l21.292,14.994l-8.396-15.494  l-4.698,2.399l0.2-0.1l3.649-15.494l-1-0.2c-0.15-0.6-0.25-1.199-0.25-1.849c0-2.449,1-4.599,2.999-6.348  c1.899-1.6,4.148-2.449,6.697-2.549v-2.25c-0.15,0-0.25,0-0.4,0c-1.649,0-3.099-0.25-4.298-0.75  c-1.149-0.499-1.749-1.099-1.749-1.799c0-0.699,0.6-1.299,1.749-1.799c1.2-0.5,2.649-0.75,4.298-0.75c0.15,0,0.25,0,0.4,0v-1.449  c-0.3-0.051-0.6-0.051-0.95-0.051C72.189,73.594,69.14,74.745,66.591,76.994L66.591,76.994z"/><path display="none" d="M86.633,133.221c-1.899-1.85-4.148-2.749-6.797-2.749s-4.898,0.899-6.797,2.749  c-1.1,1.05-1.849,2.199-2.299,3.498c-1.649,3.949-3.199,6.598-4.648,7.997c-2.299,2.35-5.098,3.499-8.447,3.499  c-3.298,0-6.098-1.149-8.396-3.499c-2.349-2.299-3.499-5.098-3.499-8.396c0-0.25,0-0.5,0.05-0.75  C44.6,137.819,44,140.369,44,143.167c0,1.049,0.1,2.049,0.3,3.049c0.15,0.949,0.45,2.049,0.9,3.198  c0.35,1.149,0.899,2.149,1.549,2.999s1.149,1.499,1.599,1.949c2.949,3.099,6.448,4.648,10.546,4.648c3.699,0,7.247-1.4,10.646-4.148  l-2.549,3.198l-1.849,20.192h3.099l4.048-17.693l5.048-3.448l-3.699-8.797c0.45-0.25,0.85-0.45,1.2-0.649l4.498,10.546  c-0.25,0.6-0.6,1.349-0.95,2.249l-1.1,2.549l18.693,15.244h4.248l-15.294-14.545l6.397-14.144l10.946,5.897l12.745,0.35  l3.099,22.441h2.999l-0.2-27.64c0.25-0.499,0.6-1.149,1.05-1.949c1.149-2.898,1.7-5.697,1.7-8.446c0-3.249-0.601-5.998-1.8-8.297  c-0.25-0.449-0.5-0.85-0.75-1.199c0,0,0,0,0-0.05c0.55-2.549,0.8-5.248,0.75-8.098c0-0.6,0-1.199-0.05-1.799h-5.549v-1.999h5.398  c-0.15-1.149-0.3-2.299-0.55-3.349h-4.849v-1.999h4.398c-0.35-1.1-0.699-2.149-1.1-3.198h-3.299v-2h2.4  c-0.201-0.35-0.4-0.699-0.601-1.049c-1.699-2.949-3.599-4.849-5.747-5.748h-0.301v2.599h-1.998v-2.599h-1.6v2.599h-2v-2.599h-1.549  v3.998l-10.496,9.297l2.649,5.447l12.645-3.449l-0.351,3.799l-4.098,9.597l3.898-1.2l0.3,1.399L93.13,135.92h-0.05  c-1.2,0.399-2.499,0.799-3.849,1.249c-0.25-0.649-0.55-1.249-0.899-1.799C87.882,134.621,87.283,133.871,86.633,133.221  L86.633,133.221z"/><path display="none" d="M185.993,61c-4.947,0-9.195,1.749-12.695,5.197c-3.447,3.498-5.197,7.747-5.197,12.695  c0,4.947,1.75,9.146,5.197,12.595c3.049,3.049,6.598,4.748,10.746,5.147l-2,2.1c-0.1-0.05-0.199-0.05-0.299-0.05  c-3.35-0.45-6.447,0.45-9.346,2.749c-5.549-0.25-9.547-3.049-11.945-8.297c2.049-10.046-0.6-17.243-7.897-21.642  c-6.348-3.849-13.095-4.498-20.241-1.949c-1.1,0.399-2.199,0.85-3.35,1.399l3.049,2.449h-3.898v3.849h2.749l-2.749,2.099v1.1h3.049  l1.15-1.999l0.049-0.1l0.101,5.997h1.399v12.445l8.047-3.748v-3.648c4.198,5.747,4.898,13.645,2.1,23.74l3.548,5.748v27.389h3.549  v-26.49h1.249v17.644l9.097,9.097h3.749l-9.347-10.446l0.499-9.597l2.649-6.697h9.396c-0.049-4.998,2.5-7.896,7.748-8.695  c-0.9,6.947,1.35,10.445,6.797,10.445l-9.896,23.891h3.648l10.797-25.09l4.848-0.551v26.29h3.848v-31.787h-5.098  c1.699-4.548,1.1-8.397-1.85-11.596l0,0l0.75-0.85l-4.547-6.747c-2.25-3.049-3.449-6.697-3.6-10.945  c-0.15-4.449,0.9-8.247,3.1-11.396c2.299-3.148,5.146-4.697,8.496-4.697c3.348,0,6.248,1.549,8.697,4.697  c0.449,0.551,0.898,1.15,1.248,1.75c-0.75-3.099-2.299-5.848-4.748-8.297C195.19,62.75,190.94,61,185.993,61L185.993,61z   M135.714,82.192c0.25-0.2,0.5-0.301,0.85-0.301s0.6,0.101,0.799,0.301c0.25,0.25,0.35,0.5,0.35,0.85s-0.1,0.6-0.35,0.799  c-0.199,0.25-0.449,0.351-0.799,0.351s-0.6-0.101-0.85-0.351c-0.2-0.199-0.301-0.449-0.301-0.799S135.514,82.442,135.714,82.192  L135.714,82.192z"/><path d="M140.21,30.68c-1.322-1.268-2.7-2.48-4.133-3.582c-8.265-6.391-17.907-9.587-28.872-9.587  c-6.336,0-12.177,1.046-17.631,3.196l23.086,7.934l-31.021-3.857c-2.646,1.653-5.125,3.637-7.494,5.896  c-3.251,3.141-5.951,6.557-8.045,10.138c0.386-0.166,0.827-0.275,1.212-0.441c7.548-2.7,16.695-4.243,27.439-4.628  c10.69-0.386,19.836,0.496,27.385,2.589c5.565,1.543,9.093,3.416,10.579,5.62c0.552,0.827,0.827,1.653,0.827,2.59  c0,0.937-0.275,1.818-0.827,2.699c-1.486,2.37-5.014,4.519-10.579,6.447c-1.322,0.496-2.699,0.937-4.133,1.323v-6.612l-15.703,8.375  v48.598c1.598,0.165,3.251,0.22,4.904,0.22c12.894,0,23.913-4.407,33.005-13.223c4.352-4.133,7.659-8.707,9.918-13.721  c2.534-5.565,3.803-11.571,3.803-18.127C153.931,50.129,149.356,39.496,140.21,30.68L140.21,30.68z"/><path d="M60.536,59.552c-0.055,0.992-0.11,1.983-0.11,2.976c0,12.451,4.573,23.086,13.72,31.848  c7.108,6.887,15.428,11.073,24.851,12.617V59.552H60.536L60.536,59.552z M75.908,72.169c0-1.322,0.441-2.425,1.377-3.361  c0.937-0.937,2.039-1.378,3.361-1.378c1.323,0,2.424,0.441,3.361,1.378c0.937,0.937,1.378,2.039,1.378,3.361  s-0.441,2.425-1.378,3.361c-0.937,0.937-2.038,1.378-3.361,1.378c-1.322,0-2.424-0.441-3.361-1.378  C76.349,74.594,75.908,73.492,75.908,72.169L75.908,72.169z"/><text x="57.134" y="124.727" fill="#000000" font-size="5px" font-weight="bold" font-family="'Helvetica Neue', Helvetica, Arial-Unicode, Arial, Sans-serif">Created by N.K.Narasimhan</text><text x="57.134" y="129.727" fill="#000000" font-size="5px" font-weight="bold" font-family="'Helvetica Neue', Helvetica, Arial-Unicode, Arial, Sans-serif">from the Noun Project</text></svg>